<svg xmlns="http://www.w3.org/2000/svg" width="16" height="16" viewBox="0 0 16 16" fill="none">
  <path d="M5.29246 1.63595C5.10499 1.82348 4.99968 2.07779 4.99968 2.34295C4.99968 2.60811 5.10499 2.86242 5.29246 3.04995L10.2425 7.99995L5.29246 12.95C5.11031 13.1386 5.00951 13.3912 5.01179 13.6534C5.01407 13.9155 5.11924 14.1664 5.30464 14.3518C5.49005 14.5372 5.74087 14.6423 6.00306 14.6446C6.26526 14.6469 6.51786 14.5461 6.70646 14.364L12.3635 8.70695C12.5509 8.51942 12.6562 8.26512 12.6562 7.99995C12.6562 7.73479 12.5509 7.48048 12.3635 7.29295L6.70646 1.63595C6.51894 1.44848 6.26463 1.34316 5.99946 1.34316C5.7343 1.34316 5.47999 1.44848 5.29246 1.63595Z" fill="#1A51AA"/>
</svg>