<svg xmlns="http://www.w3.org/2000/svg" width="40" height="39" viewBox="0 0 40 39" fill="none">
  <rect x="6.23633" y="21.4703" width="8.47093" height="2.82345" fill="#777777"/>
  <rect x="6.23633" y="25.7054" width="8.47093" height="2.82345" fill="#777777"/>
  <rect x="6.23633" y="29.9401" width="8.47093" height="2.82345" fill="#777777"/>
  <rect x="23.1758" y="15.8223" width="4.23546" height="2.82345" fill="#777777"/>
  <rect x="23.1758" y="21.4703" width="4.23546" height="2.82345" fill="#777777"/>
  <rect x="23.1758" y="27.1174" width="4.23546" height="2.82345" fill="#777777"/>
  <rect x="29.5303" y="15.8223" width="4.23546" height="2.82345" fill="#777777"/>
  <rect x="29.5303" y="21.4706" width="4.23546" height="2.82345" fill="#777777"/>
  <rect x="29.5303" y="27.1174" width="4.23546" height="2.82345" fill="#777777"/>
  <path d="M2 19.2359C2 18.1313 2.89544 17.2359 4.00003 17.2359H16.9418C18.0464 17.2359 18.9419 18.1313 18.9419 19.2359V37H2V19.2359Z" stroke="#777777" stroke-width="4.00006"/>
  <path d="M18.9395 13.4335C18.9395 12.727 19.3121 12.073 19.9199 11.7128L34.9794 2.78927C36.3127 1.99926 37.999 2.9602 37.999 4.50991V36.999H18.9395V13.4335Z" stroke="#777777" stroke-width="4.00006"/>
</svg>