<svg xmlns="http://www.w3.org/2000/svg" width="28" height="28" viewBox="0 0 28 28" fill="none">
  <g clip-path="url(#clip0_0_186)">
    <path d="M16.3333 15.1667H18.6667V17.5H16.3333V15.1667ZM21 17.5H23.3333V15.1667H21V17.5ZM16.3333 22.1667H18.6667V19.8333H16.3333V22.1667ZM21 22.1667H23.3333V19.8333H21V22.1667ZM16.3333 8.16667H18.6667V5.83333H16.3333V8.16667ZM21 8.16667H23.3333V5.83333H21V8.16667ZM16.3333 12.8333H18.6667V10.5H16.3333V12.8333ZM21 12.8333H23.3333V10.5H21V12.8333ZM28 3.5V28H0V10.3005C0 9.366 0.364 8.48633 1.0255 7.82483L4.18367 4.66667C5.6875 3.16167 8.3125 3.16167 9.81633 4.66667L11.6667 6.517V3.5C11.6667 1.57033 13.237 0 15.1667 0H24.5C26.4297 0 28 1.57033 28 3.5ZM11.6667 10.3005C11.6667 9.989 11.5453 9.695 11.3248 9.4745L8.16667 6.31633C7.553 5.70267 6.447 5.70267 5.83333 6.31633L2.67517 9.4745C2.45467 9.695 2.33333 9.98783 2.33333 10.3005V25.6667H11.6667V10.3005ZM25.6667 3.5C25.6667 2.85717 25.1428 2.33333 24.5 2.33333H15.1667C14.5238 2.33333 14 2.85717 14 3.5V25.6667H25.6667V3.5ZM5.83333 17.5H8.16667V15.1667H5.83333V17.5ZM5.83333 12.8333H8.16667V10.5H5.83333V12.8333ZM5.83333 22.1667H8.16667V19.8333H5.83333V22.1667Z" fill="#777777"/>
    <rect x="16.3359" y="5.83325" width="2.33333" height="2.33333" fill="#777777"/>
    <rect x="16.3359" y="10.5" width="2.33333" height="2.33333" fill="#777777"/>
    <rect x="16.3359" y="15.1667" width="2.33333" height="2.33333" fill="#777777"/>
    <rect x="16.3359" y="19.8333" width="2.33333" height="2.33333" fill="#777777"/>
    <rect x="5.83594" y="19.8333" width="2.33333" height="2.33333" fill="#777777"/>
    <rect x="5.83594" y="15.1667" width="2.33333" height="2.33333" fill="#777777"/>
    <rect x="5.83594" y="10.5" width="2.33333" height="2.33333" fill="#777777"/>
    <rect x="21" y="5.83334" width="2.33333" height="2.33333" fill="#777777"/>
    <rect x="21" y="10.5" width="2.33333" height="2.33333" fill="#777777"/>
    <rect x="21" y="15.1667" width="2.33333" height="2.33333" fill="#777777"/>
    <rect x="21" y="19.8333" width="2.33333" height="2.33333" fill="#777777"/>
  </g>
  <defs>
    <clipPath id="clip0_0_186">
      <rect width="28" height="28" fill="white"/>
    </clipPath>
  </defs>
</svg>