<svg xmlns="http://www.w3.org/2000/svg" width="32" height="31" viewBox="0 0 32 31" fill="none">
  <rect x="5.2934" y="16.9213" width="6.5885" height="2.19601" fill="#90C63A"/>
  <rect x="5.2934" y="20.2153" width="6.5885" height="2.19601" fill="#90C63A"/>
  <rect x="5.2934" y="23.5089" width="6.5885" height="2.19601" fill="#90C63A"/>
  <rect x="18.47" y="12.5284" width="3.29425" height="2.19601" fill="#90C63A"/>
  <rect x="18.47" y="16.9213" width="3.29425" height="2.19601" fill="#90C63A"/>
  <rect x="18.47" y="21.3135" width="3.29425" height="2.19601" fill="#90C63A"/>
  <rect x="23.4132" y="12.5284" width="3.29425" height="2.19601" fill="#90C63A"/>
  <rect x="23.4132" y="16.9217" width="3.29425" height="2.19601" fill="#90C63A"/>
  <rect x="23.4132" y="21.3135" width="3.29425" height="2.19601" fill="#90C63A"/>
  <path d="M2 15.6279C2 14.5233 2.89544 13.6279 4.00003 13.6279H13.177C14.2816 13.6279 15.177 14.5233 15.177 15.6279V29H2V15.6279Z" stroke="#1A51AA" stroke-width="4.00006"/>
  <path d="M15.1736 10.9237C15.1736 10.2173 15.5463 9.56322 16.154 9.20308L26.9781 2.78927C28.3113 1.99926 29.9977 2.9602 29.9977 4.50991V28.9992H15.1736V10.9237Z" stroke="#1A51AA" stroke-width="4.00006"/>
</svg>